<mxfile host="app.diagrams.net" agent="Mozilla/5.0 (Windows NT 10.0; Win64; x64) AppleWebKit/537.36 (KHTML, like Gecko) Chrome/133.0.0.0 Safari/537.36" version="26.0.16">
  <diagram name="Página-1" id="XB4Z8zkzqnux2oW8rPwN">
    <mxGraphModel dx="1674" dy="746" grid="1" gridSize="10" guides="1" tooltips="1" connect="1" arrows="1" fold="1" page="1" pageScale="1" pageWidth="2910" pageHeight="1030" math="0" shadow="0">
      <root>
        <mxCell id="0" />
        <mxCell id="1" parent="0" />
        <mxCell id="MjaqNSDwa1cyb_so7ybZ-1" value="Validaciones para aprobar un A3 de manera automatica" style="swimlane;childLayout=stackLayout;resizeParent=1;resizeParentMax=0;horizontal=1;startSize=20;horizontalStack=0;html=1;" parent="1" vertex="1">
          <mxGeometry x="40" y="30" width="1280" height="850" as="geometry" />
        </mxCell>
        <mxCell id="MjaqNSDwa1cyb_so7ybZ-2" value="Lane 1" style="swimlane;startSize=20;horizontal=0;html=1;" parent="MjaqNSDwa1cyb_so7ybZ-1" vertex="1">
          <mxGeometry y="20" width="1280" height="830" as="geometry" />
        </mxCell>
        <mxCell id="MjaqNSDwa1cyb_so7ybZ-5" value="Inicio" style="points=[[0.145,0.145,0],[0.5,0,0],[0.855,0.145,0],[1,0.5,0],[0.855,0.855,0],[0.5,1,0],[0.145,0.855,0],[0,0.5,0]];shape=mxgraph.bpmn.event;html=1;verticalLabelPosition=bottom;labelBackgroundColor=#ffffff;verticalAlign=top;align=center;perimeter=ellipsePerimeter;outlineConnect=0;aspect=fixed;outline=standard;symbol=general;fillColor=#f8cecc;strokeColor=#b85450;" parent="MjaqNSDwa1cyb_so7ybZ-2" vertex="1">
          <mxGeometry x="40" y="40" width="50" height="50" as="geometry" />
        </mxCell>
        <mxCell id="MjaqNSDwa1cyb_so7ybZ-7" value="Validar condiciones para crear A3" style="points=[[0.25,0,0],[0.5,0,0],[0.75,0,0],[1,0.25,0],[1,0.5,0],[1,0.75,0],[0.75,1,0],[0.5,1,0],[0.25,1,0],[0,0.75,0],[0,0.5,0],[0,0.25,0]];shape=mxgraph.bpmn.task2;whiteSpace=wrap;rectStyle=rounded;size=10;html=1;container=1;expand=0;collapsible=0;taskMarker=script;fillColor=#fff2cc;strokeColor=#d6b656;" parent="MjaqNSDwa1cyb_so7ybZ-2" vertex="1">
          <mxGeometry x="120" y="25" width="120" height="80" as="geometry" />
        </mxCell>
        <mxCell id="MjaqNSDwa1cyb_so7ybZ-6" style="edgeStyle=orthogonalEdgeStyle;rounded=0;orthogonalLoop=1;jettySize=auto;html=1;" parent="MjaqNSDwa1cyb_so7ybZ-2" source="MjaqNSDwa1cyb_so7ybZ-5" target="MjaqNSDwa1cyb_so7ybZ-7" edge="1">
          <mxGeometry relative="1" as="geometry">
            <mxPoint x="130" y="65" as="targetPoint" />
          </mxGeometry>
        </mxCell>
        <mxCell id="MjaqNSDwa1cyb_so7ybZ-10" style="edgeStyle=orthogonalEdgeStyle;rounded=0;orthogonalLoop=1;jettySize=auto;html=1;" parent="MjaqNSDwa1cyb_so7ybZ-2" source="MjaqNSDwa1cyb_so7ybZ-9" target="MjaqNSDwa1cyb_so7ybZ-15" edge="1">
          <mxGeometry relative="1" as="geometry">
            <mxPoint x="390" y="65" as="targetPoint" />
          </mxGeometry>
        </mxCell>
        <mxCell id="MjaqNSDwa1cyb_so7ybZ-11" value="NO" style="edgeLabel;html=1;align=center;verticalAlign=middle;resizable=0;points=[];" parent="MjaqNSDwa1cyb_so7ybZ-10" vertex="1" connectable="0">
          <mxGeometry x="-0.1075" relative="1" as="geometry">
            <mxPoint x="-120" as="offset" />
          </mxGeometry>
        </mxCell>
        <mxCell id="MjaqNSDwa1cyb_so7ybZ-9" value="¿Servicio marcado &lt;br&gt;como automático?" style="points=[[0.25,0.25,0],[0.5,0,0],[0.75,0.25,0],[1,0.5,0],[0.75,0.75,0],[0.5,1,0],[0.25,0.75,0],[0,0.5,0]];shape=mxgraph.bpmn.gateway2;html=1;verticalLabelPosition=top;labelBackgroundColor=#ffffff;verticalAlign=bottom;align=center;perimeter=rhombusPerimeter;outlineConnect=0;outline=none;symbol=none;fillColor=#d5e8d4;strokeColor=#82b366;fontSize=10;labelPosition=center;" parent="MjaqNSDwa1cyb_so7ybZ-2" vertex="1">
          <mxGeometry x="280" y="40" width="50" height="50" as="geometry" />
        </mxCell>
        <mxCell id="MjaqNSDwa1cyb_so7ybZ-8" style="edgeStyle=orthogonalEdgeStyle;rounded=0;orthogonalLoop=1;jettySize=auto;html=1;" parent="MjaqNSDwa1cyb_so7ybZ-2" source="MjaqNSDwa1cyb_so7ybZ-7" target="MjaqNSDwa1cyb_so7ybZ-9" edge="1">
          <mxGeometry relative="1" as="geometry">
            <mxPoint x="280" y="65" as="targetPoint" />
          </mxGeometry>
        </mxCell>
        <mxCell id="MjaqNSDwa1cyb_so7ybZ-14" value="Crear A3 en estado PENDIENTE" style="points=[[0.25,0,0],[0.5,0,0],[0.75,0,0],[1,0.25,0],[1,0.5,0],[1,0.75,0],[0.75,1,0],[0.5,1,0],[0.25,1,0],[0,0.75,0],[0,0.5,0],[0,0.25,0]];shape=mxgraph.bpmn.task2;whiteSpace=wrap;rectStyle=rounded;size=10;html=1;container=1;expand=0;collapsible=0;taskMarker=script;fillColor=#fff2cc;strokeColor=#d6b656;" parent="MjaqNSDwa1cyb_so7ybZ-2" vertex="1">
          <mxGeometry x="1040" y="255" width="120" height="80" as="geometry" />
        </mxCell>
        <mxCell id="MjaqNSDwa1cyb_so7ybZ-13" value="Crear A3 en estado APROBADO" style="points=[[0.25,0,0],[0.5,0,0],[0.75,0,0],[1,0.25,0],[1,0.5,0],[1,0.75,0],[0.75,1,0],[0.5,1,0],[0.25,1,0],[0,0.75,0],[0,0.5,0],[0,0.25,0]];shape=mxgraph.bpmn.task2;whiteSpace=wrap;rectStyle=rounded;size=10;html=1;container=1;expand=0;collapsible=0;taskMarker=script;fillColor=#fff2cc;strokeColor=#d6b656;" parent="MjaqNSDwa1cyb_so7ybZ-2" vertex="1">
          <mxGeometry x="1040" y="690" width="120" height="80" as="geometry" />
        </mxCell>
        <mxCell id="MjaqNSDwa1cyb_so7ybZ-16" style="edgeStyle=orthogonalEdgeStyle;rounded=0;orthogonalLoop=1;jettySize=auto;html=1;" parent="MjaqNSDwa1cyb_so7ybZ-2" source="MjaqNSDwa1cyb_so7ybZ-15" target="MjaqNSDwa1cyb_so7ybZ-14" edge="1">
          <mxGeometry relative="1" as="geometry" />
        </mxCell>
        <mxCell id="MjaqNSDwa1cyb_so7ybZ-15" value="" style="points=[[0.25,0.25,0],[0.5,0,0],[0.75,0.25,0],[1,0.5,0],[0.75,0.75,0],[0.5,1,0],[0.25,0.75,0],[0,0.5,0]];shape=mxgraph.bpmn.gateway2;html=1;verticalLabelPosition=bottom;labelBackgroundColor=#ffffff;verticalAlign=top;align=center;perimeter=rhombusPerimeter;outlineConnect=0;outline=end;symbol=general;fillColor=#d5e8d4;strokeColor=#82b366;" parent="MjaqNSDwa1cyb_so7ybZ-2" vertex="1">
          <mxGeometry x="940" y="270" width="50" height="50" as="geometry" />
        </mxCell>
        <mxCell id="MjaqNSDwa1cyb_so7ybZ-18" value="¿Diagnostico &lt;br&gt;alto costo?" style="points=[[0.25,0.25,0],[0.5,0,0],[0.75,0.25,0],[1,0.5,0],[0.75,0.75,0],[0.5,1,0],[0.25,0.75,0],[0,0.5,0]];shape=mxgraph.bpmn.gateway2;html=1;verticalLabelPosition=top;labelBackgroundColor=#ffffff;verticalAlign=bottom;align=center;perimeter=rhombusPerimeter;outlineConnect=0;outline=none;symbol=none;fillColor=#d5e8d4;strokeColor=#82b366;fontSize=10;labelPosition=center;" parent="MjaqNSDwa1cyb_so7ybZ-2" vertex="1">
          <mxGeometry x="350" y="115" width="50" height="50" as="geometry" />
        </mxCell>
        <mxCell id="MjaqNSDwa1cyb_so7ybZ-17" style="edgeStyle=orthogonalEdgeStyle;rounded=0;orthogonalLoop=1;jettySize=auto;html=1;" parent="MjaqNSDwa1cyb_so7ybZ-2" source="MjaqNSDwa1cyb_so7ybZ-9" target="MjaqNSDwa1cyb_so7ybZ-18" edge="1">
          <mxGeometry relative="1" as="geometry">
            <mxPoint x="305" y="180" as="targetPoint" />
            <Array as="points">
              <mxPoint x="305" y="140" />
            </Array>
          </mxGeometry>
        </mxCell>
        <mxCell id="MjaqNSDwa1cyb_so7ybZ-19" value="SI" style="edgeLabel;html=1;align=center;verticalAlign=middle;resizable=0;points=[];" parent="MjaqNSDwa1cyb_so7ybZ-17" vertex="1" connectable="0">
          <mxGeometry x="-0.2615" y="1" relative="1" as="geometry">
            <mxPoint as="offset" />
          </mxGeometry>
        </mxCell>
        <mxCell id="MjaqNSDwa1cyb_so7ybZ-20" style="edgeStyle=orthogonalEdgeStyle;rounded=0;orthogonalLoop=1;jettySize=auto;html=1;entryX=0.5;entryY=0;entryDx=0;entryDy=0;entryPerimeter=0;" parent="MjaqNSDwa1cyb_so7ybZ-2" source="MjaqNSDwa1cyb_so7ybZ-18" target="MjaqNSDwa1cyb_so7ybZ-15" edge="1">
          <mxGeometry relative="1" as="geometry" />
        </mxCell>
        <mxCell id="MjaqNSDwa1cyb_so7ybZ-21" value="SI" style="edgeLabel;html=1;align=center;verticalAlign=middle;resizable=0;points=[];" parent="MjaqNSDwa1cyb_so7ybZ-20" vertex="1" connectable="0">
          <mxGeometry x="-0.1097" relative="1" as="geometry">
            <mxPoint x="-69" as="offset" />
          </mxGeometry>
        </mxCell>
        <mxCell id="MjaqNSDwa1cyb_so7ybZ-23" style="edgeStyle=orthogonalEdgeStyle;rounded=0;orthogonalLoop=1;jettySize=auto;html=1;" parent="MjaqNSDwa1cyb_so7ybZ-2" source="MjaqNSDwa1cyb_so7ybZ-22" target="MjaqNSDwa1cyb_so7ybZ-15" edge="1">
          <mxGeometry relative="1" as="geometry" />
        </mxCell>
        <mxCell id="MjaqNSDwa1cyb_so7ybZ-24" value="SI" style="edgeLabel;html=1;align=center;verticalAlign=middle;resizable=0;points=[];" parent="MjaqNSDwa1cyb_so7ybZ-23" vertex="1" connectable="0">
          <mxGeometry x="-0.0788" y="-1" relative="1" as="geometry">
            <mxPoint x="-33" y="-1" as="offset" />
          </mxGeometry>
        </mxCell>
        <mxCell id="MjaqNSDwa1cyb_so7ybZ-22" value="¿Siniestro&amp;nbsp;&lt;div&gt;asociado?&lt;/div&gt;" style="points=[[0.25,0.25,0],[0.5,0,0],[0.75,0.25,0],[1,0.5,0],[0.75,0.75,0],[0.5,1,0],[0.25,0.75,0],[0,0.5,0]];shape=mxgraph.bpmn.gateway2;html=1;verticalLabelPosition=top;labelBackgroundColor=#ffffff;verticalAlign=bottom;align=center;perimeter=rhombusPerimeter;outlineConnect=0;outline=none;symbol=none;fillColor=#d5e8d4;strokeColor=#82b366;fontSize=10;labelPosition=center;" parent="MjaqNSDwa1cyb_so7ybZ-2" vertex="1">
          <mxGeometry x="420" y="190" width="50" height="50" as="geometry" />
        </mxCell>
        <mxCell id="MjaqNSDwa1cyb_so7ybZ-25" style="edgeStyle=orthogonalEdgeStyle;rounded=0;orthogonalLoop=1;jettySize=auto;html=1;entryX=0;entryY=0.5;entryDx=0;entryDy=0;entryPerimeter=0;" parent="MjaqNSDwa1cyb_so7ybZ-2" source="MjaqNSDwa1cyb_so7ybZ-18" target="MjaqNSDwa1cyb_so7ybZ-22" edge="1">
          <mxGeometry relative="1" as="geometry">
            <Array as="points">
              <mxPoint x="375" y="215" />
            </Array>
          </mxGeometry>
        </mxCell>
        <mxCell id="MjaqNSDwa1cyb_so7ybZ-26" value="NO" style="edgeLabel;html=1;align=center;verticalAlign=middle;resizable=0;points=[];" parent="MjaqNSDwa1cyb_so7ybZ-25" vertex="1" connectable="0">
          <mxGeometry x="-0.3684" relative="1" as="geometry">
            <mxPoint as="offset" />
          </mxGeometry>
        </mxCell>
        <mxCell id="MjaqNSDwa1cyb_so7ybZ-27" style="edgeStyle=orthogonalEdgeStyle;rounded=0;orthogonalLoop=1;jettySize=auto;html=1;" parent="MjaqNSDwa1cyb_so7ybZ-2" source="MjaqNSDwa1cyb_so7ybZ-22" target="MjaqNSDwa1cyb_so7ybZ-33" edge="1">
          <mxGeometry relative="1" as="geometry">
            <mxPoint x="490" y="295" as="targetPoint" />
            <Array as="points">
              <mxPoint x="445" y="295" />
            </Array>
          </mxGeometry>
        </mxCell>
        <mxCell id="MjaqNSDwa1cyb_so7ybZ-29" value="NO" style="edgeLabel;html=1;align=center;verticalAlign=middle;resizable=0;points=[];" parent="MjaqNSDwa1cyb_so7ybZ-27" vertex="1" connectable="0">
          <mxGeometry x="-0.15" y="1" relative="1" as="geometry">
            <mxPoint as="offset" />
          </mxGeometry>
        </mxCell>
        <mxCell id="MjaqNSDwa1cyb_so7ybZ-34" style="edgeStyle=orthogonalEdgeStyle;rounded=0;orthogonalLoop=1;jettySize=auto;html=1;" parent="MjaqNSDwa1cyb_so7ybZ-2" source="MjaqNSDwa1cyb_so7ybZ-33" target="MjaqNSDwa1cyb_so7ybZ-15" edge="1">
          <mxGeometry relative="1" as="geometry" />
        </mxCell>
        <mxCell id="MjaqNSDwa1cyb_so7ybZ-35" value="SI" style="edgeLabel;html=1;align=center;verticalAlign=middle;resizable=0;points=[];" parent="MjaqNSDwa1cyb_so7ybZ-34" vertex="1" connectable="0">
          <mxGeometry x="-0.2941" y="1" relative="1" as="geometry">
            <mxPoint x="49" y="-4" as="offset" />
          </mxGeometry>
        </mxCell>
        <mxCell id="MjaqNSDwa1cyb_so7ybZ-33" value="¿Producto &lt;br&gt;controlado?" style="points=[[0.25,0.25,0],[0.5,0,0],[0.75,0.25,0],[1,0.5,0],[0.75,0.75,0],[0.5,1,0],[0.25,0.75,0],[0,0.5,0]];shape=mxgraph.bpmn.gateway2;html=1;verticalLabelPosition=top;labelBackgroundColor=#ffffff;verticalAlign=bottom;align=center;perimeter=rhombusPerimeter;outlineConnect=0;outline=none;symbol=none;fillColor=#d5e8d4;strokeColor=#82b366;fontSize=10;labelPosition=center;" parent="MjaqNSDwa1cyb_so7ybZ-2" vertex="1">
          <mxGeometry x="490" y="270" width="50" height="50" as="geometry" />
        </mxCell>
        <mxCell id="MjaqNSDwa1cyb_so7ybZ-39" style="edgeStyle=orthogonalEdgeStyle;rounded=0;orthogonalLoop=1;jettySize=auto;html=1;" parent="MjaqNSDwa1cyb_so7ybZ-2" source="MjaqNSDwa1cyb_so7ybZ-37" target="MjaqNSDwa1cyb_so7ybZ-15" edge="1">
          <mxGeometry relative="1" as="geometry" />
        </mxCell>
        <mxCell id="MjaqNSDwa1cyb_so7ybZ-40" value="NO" style="edgeLabel;html=1;align=center;verticalAlign=middle;resizable=0;points=[];" parent="MjaqNSDwa1cyb_so7ybZ-39" vertex="1" connectable="0">
          <mxGeometry x="-0.4" relative="1" as="geometry">
            <mxPoint x="34" as="offset" />
          </mxGeometry>
        </mxCell>
        <mxCell id="MjaqNSDwa1cyb_so7ybZ-37" value="¿Producto POSS" style="points=[[0.25,0.25,0],[0.5,0,0],[0.75,0.25,0],[1,0.5,0],[0.75,0.75,0],[0.5,1,0],[0.25,0.75,0],[0,0.5,0]];shape=mxgraph.bpmn.gateway2;html=1;verticalLabelPosition=top;labelBackgroundColor=#ffffff;verticalAlign=bottom;align=center;perimeter=rhombusPerimeter;outlineConnect=0;outline=none;symbol=none;fillColor=#d5e8d4;strokeColor=#82b366;fontSize=10;labelPosition=center;" parent="MjaqNSDwa1cyb_so7ybZ-2" vertex="1">
          <mxGeometry x="560" y="360" width="50" height="50" as="geometry" />
        </mxCell>
        <mxCell id="MjaqNSDwa1cyb_so7ybZ-36" style="edgeStyle=orthogonalEdgeStyle;rounded=0;orthogonalLoop=1;jettySize=auto;html=1;" parent="MjaqNSDwa1cyb_so7ybZ-2" source="MjaqNSDwa1cyb_so7ybZ-33" target="MjaqNSDwa1cyb_so7ybZ-37" edge="1">
          <mxGeometry relative="1" as="geometry">
            <mxPoint x="515" y="360" as="targetPoint" />
            <Array as="points">
              <mxPoint x="515" y="385" />
            </Array>
          </mxGeometry>
        </mxCell>
        <mxCell id="MjaqNSDwa1cyb_so7ybZ-38" value="NO" style="edgeLabel;html=1;align=center;verticalAlign=middle;resizable=0;points=[];" parent="MjaqNSDwa1cyb_so7ybZ-36" vertex="1" connectable="0">
          <mxGeometry x="-0.2" relative="1" as="geometry">
            <mxPoint as="offset" />
          </mxGeometry>
        </mxCell>
        <mxCell id="MjaqNSDwa1cyb_so7ybZ-44" style="edgeStyle=orthogonalEdgeStyle;rounded=0;orthogonalLoop=1;jettySize=auto;html=1;" parent="MjaqNSDwa1cyb_so7ybZ-2" source="MjaqNSDwa1cyb_so7ybZ-42" target="MjaqNSDwa1cyb_so7ybZ-15" edge="1">
          <mxGeometry relative="1" as="geometry" />
        </mxCell>
        <mxCell id="MjaqNSDwa1cyb_so7ybZ-45" value="SI" style="edgeLabel;html=1;align=center;verticalAlign=middle;resizable=0;points=[];" parent="MjaqNSDwa1cyb_so7ybZ-44" vertex="1" connectable="0">
          <mxGeometry x="-0.6158" relative="1" as="geometry">
            <mxPoint x="55" as="offset" />
          </mxGeometry>
        </mxCell>
        <mxCell id="MjaqNSDwa1cyb_so7ybZ-42" value="¿Producto&lt;div&gt;capitado?&lt;/div&gt;" style="points=[[0.25,0.25,0],[0.5,0,0],[0.75,0.25,0],[1,0.5,0],[0.75,0.75,0],[0.5,1,0],[0.25,0.75,0],[0,0.5,0]];shape=mxgraph.bpmn.gateway2;html=1;verticalLabelPosition=top;labelBackgroundColor=#ffffff;verticalAlign=bottom;align=center;perimeter=rhombusPerimeter;outlineConnect=0;outline=none;symbol=none;fillColor=#d5e8d4;strokeColor=#82b366;fontSize=10;labelPosition=center;" parent="MjaqNSDwa1cyb_so7ybZ-2" vertex="1">
          <mxGeometry x="630" y="450" width="50" height="50" as="geometry" />
        </mxCell>
        <mxCell id="MjaqNSDwa1cyb_so7ybZ-41" style="edgeStyle=orthogonalEdgeStyle;rounded=0;orthogonalLoop=1;jettySize=auto;html=1;" parent="MjaqNSDwa1cyb_so7ybZ-2" source="MjaqNSDwa1cyb_so7ybZ-37" target="MjaqNSDwa1cyb_so7ybZ-42" edge="1">
          <mxGeometry relative="1" as="geometry">
            <mxPoint x="585" y="470" as="targetPoint" />
            <Array as="points">
              <mxPoint x="585" y="475" />
            </Array>
          </mxGeometry>
        </mxCell>
        <mxCell id="MjaqNSDwa1cyb_so7ybZ-43" value="SI" style="edgeLabel;html=1;align=center;verticalAlign=middle;resizable=0;points=[];" parent="MjaqNSDwa1cyb_so7ybZ-41" vertex="1" connectable="0">
          <mxGeometry x="-0.2545" y="1" relative="1" as="geometry">
            <mxPoint as="offset" />
          </mxGeometry>
        </mxCell>
        <mxCell id="MjaqNSDwa1cyb_so7ybZ-49" style="edgeStyle=orthogonalEdgeStyle;rounded=0;orthogonalLoop=1;jettySize=auto;html=1;" parent="MjaqNSDwa1cyb_so7ybZ-2" source="MjaqNSDwa1cyb_so7ybZ-47" target="MjaqNSDwa1cyb_so7ybZ-15" edge="1">
          <mxGeometry relative="1" as="geometry" />
        </mxCell>
        <mxCell id="MjaqNSDwa1cyb_so7ybZ-50" value="NO" style="edgeLabel;html=1;align=center;verticalAlign=middle;resizable=0;points=[];" parent="MjaqNSDwa1cyb_so7ybZ-49" vertex="1" connectable="0">
          <mxGeometry x="-0.7805" y="1" relative="1" as="geometry">
            <mxPoint x="28" y="1" as="offset" />
          </mxGeometry>
        </mxCell>
        <mxCell id="MjaqNSDwa1cyb_so7ybZ-47" value="¿Rol 10,&amp;nbsp;&lt;span style=&quot;background-color: light-dark(rgb(255, 255, 255), rgb(18, 18, 18)); color: light-dark(rgb(0, 0, 0), rgb(255, 255, 255));&quot;&gt;13,&amp;nbsp;&lt;/span&gt;&lt;div&gt;&lt;span style=&quot;background-color: light-dark(rgb(255, 255, 255), rgb(18, 18, 18)); color: light-dark(rgb(0, 0, 0), rgb(255, 255, 255));&quot;&gt;16,&amp;nbsp;&lt;/span&gt;&lt;span style=&quot;background-color: light-dark(rgb(255, 255, 255), rgb(18, 18, 18)); color: light-dark(rgb(0, 0, 0), rgb(255, 255, 255));&quot;&gt;21, 130,&amp;nbsp;&lt;/span&gt;&lt;div&gt;&lt;div&gt;227?&lt;/div&gt;&lt;/div&gt;&lt;/div&gt;" style="points=[[0.25,0.25,0],[0.5,0,0],[0.75,0.25,0],[1,0.5,0],[0.75,0.75,0],[0.5,1,0],[0.25,0.75,0],[0,0.5,0]];shape=mxgraph.bpmn.gateway2;html=1;verticalLabelPosition=top;labelBackgroundColor=#ffffff;verticalAlign=bottom;align=center;perimeter=rhombusPerimeter;outlineConnect=0;outline=none;symbol=none;fillColor=#d5e8d4;strokeColor=#82b366;fontSize=10;labelPosition=center;" parent="MjaqNSDwa1cyb_so7ybZ-2" vertex="1">
          <mxGeometry x="770" y="620" width="50" height="50" as="geometry" />
        </mxCell>
        <mxCell id="MjaqNSDwa1cyb_so7ybZ-55" style="edgeStyle=orthogonalEdgeStyle;rounded=0;orthogonalLoop=1;jettySize=auto;html=1;" parent="MjaqNSDwa1cyb_so7ybZ-2" source="MjaqNSDwa1cyb_so7ybZ-51" target="MjaqNSDwa1cyb_so7ybZ-15" edge="1">
          <mxGeometry relative="1" as="geometry" />
        </mxCell>
        <mxCell id="MjaqNSDwa1cyb_so7ybZ-56" value="SI" style="edgeLabel;html=1;align=center;verticalAlign=middle;resizable=0;points=[];" parent="MjaqNSDwa1cyb_so7ybZ-55" vertex="1" connectable="0">
          <mxGeometry x="-0.5304" y="-1" relative="1" as="geometry">
            <mxPoint as="offset" />
          </mxGeometry>
        </mxCell>
        <mxCell id="MjaqNSDwa1cyb_so7ybZ-51" value="¿Producto &lt;br&gt;alto costo?" style="points=[[0.25,0.25,0],[0.5,0,0],[0.75,0.25,0],[1,0.5,0],[0.75,0.75,0],[0.5,1,0],[0.25,0.75,0],[0,0.5,0]];shape=mxgraph.bpmn.gateway2;html=1;verticalLabelPosition=top;labelBackgroundColor=#ffffff;verticalAlign=bottom;align=center;perimeter=rhombusPerimeter;outlineConnect=0;outline=none;symbol=none;fillColor=#d5e8d4;strokeColor=#82b366;fontSize=10;labelPosition=center;" parent="MjaqNSDwa1cyb_so7ybZ-2" vertex="1">
          <mxGeometry x="700" y="540" width="50" height="50" as="geometry" />
        </mxCell>
        <mxCell id="MjaqNSDwa1cyb_so7ybZ-52" style="edgeStyle=orthogonalEdgeStyle;rounded=0;orthogonalLoop=1;jettySize=auto;html=1;entryX=0;entryY=0.5;entryDx=0;entryDy=0;entryPerimeter=0;" parent="MjaqNSDwa1cyb_so7ybZ-2" source="MjaqNSDwa1cyb_so7ybZ-42" target="MjaqNSDwa1cyb_so7ybZ-51" edge="1">
          <mxGeometry relative="1" as="geometry">
            <Array as="points">
              <mxPoint x="655" y="565" />
            </Array>
          </mxGeometry>
        </mxCell>
        <mxCell id="MjaqNSDwa1cyb_so7ybZ-53" value="NO" style="edgeLabel;html=1;align=center;verticalAlign=middle;resizable=0;points=[];" parent="MjaqNSDwa1cyb_so7ybZ-52" vertex="1" connectable="0">
          <mxGeometry x="-0.2545" y="1" relative="1" as="geometry">
            <mxPoint as="offset" />
          </mxGeometry>
        </mxCell>
        <mxCell id="MjaqNSDwa1cyb_so7ybZ-54" style="edgeStyle=orthogonalEdgeStyle;rounded=0;orthogonalLoop=1;jettySize=auto;html=1;entryX=0;entryY=0.5;entryDx=0;entryDy=0;entryPerimeter=0;" parent="MjaqNSDwa1cyb_so7ybZ-2" source="MjaqNSDwa1cyb_so7ybZ-51" target="MjaqNSDwa1cyb_so7ybZ-47" edge="1">
          <mxGeometry relative="1" as="geometry">
            <Array as="points">
              <mxPoint x="725" y="645" />
            </Array>
          </mxGeometry>
        </mxCell>
        <mxCell id="MjaqNSDwa1cyb_so7ybZ-57" value="NO" style="edgeLabel;html=1;align=center;verticalAlign=middle;resizable=0;points=[];" parent="MjaqNSDwa1cyb_so7ybZ-54" vertex="1" connectable="0">
          <mxGeometry x="-0.28" y="-1" relative="1" as="geometry">
            <mxPoint as="offset" />
          </mxGeometry>
        </mxCell>
        <mxCell id="MjaqNSDwa1cyb_so7ybZ-58" style="edgeStyle=orthogonalEdgeStyle;rounded=0;orthogonalLoop=1;jettySize=auto;html=1;entryX=0;entryY=0.5;entryDx=0;entryDy=0;entryPerimeter=0;" parent="MjaqNSDwa1cyb_so7ybZ-2" source="MjaqNSDwa1cyb_so7ybZ-47" target="MjaqNSDwa1cyb_so7ybZ-13" edge="1">
          <mxGeometry relative="1" as="geometry">
            <Array as="points">
              <mxPoint x="795" y="730" />
            </Array>
          </mxGeometry>
        </mxCell>
        <mxCell id="MjaqNSDwa1cyb_so7ybZ-64" value="SI" style="edgeLabel;html=1;align=center;verticalAlign=middle;resizable=0;points=[];" parent="MjaqNSDwa1cyb_so7ybZ-58" vertex="1" connectable="0">
          <mxGeometry x="0.1279" relative="1" as="geometry">
            <mxPoint as="offset" />
          </mxGeometry>
        </mxCell>
        <mxCell id="MjaqNSDwa1cyb_so7ybZ-61" value="Fin" style="points=[[0.145,0.145,0],[0.5,0,0],[0.855,0.145,0],[1,0.5,0],[0.855,0.855,0],[0.5,1,0],[0.145,0.855,0],[0,0.5,0]];shape=mxgraph.bpmn.event;html=1;verticalLabelPosition=bottom;labelBackgroundColor=#ffffff;verticalAlign=top;align=center;perimeter=ellipsePerimeter;outlineConnect=0;aspect=fixed;outline=end;symbol=terminate2;fillColor=#f8cecc;strokeColor=#b85450;" parent="MjaqNSDwa1cyb_so7ybZ-2" vertex="1">
          <mxGeometry x="1190" y="705" width="50" height="50" as="geometry" />
        </mxCell>
        <mxCell id="MjaqNSDwa1cyb_so7ybZ-63" style="edgeStyle=orthogonalEdgeStyle;rounded=0;orthogonalLoop=1;jettySize=auto;html=1;entryX=0;entryY=0.5;entryDx=0;entryDy=0;entryPerimeter=0;" parent="MjaqNSDwa1cyb_so7ybZ-2" source="MjaqNSDwa1cyb_so7ybZ-13" target="MjaqNSDwa1cyb_so7ybZ-61" edge="1">
          <mxGeometry relative="1" as="geometry" />
        </mxCell>
        <mxCell id="MjaqNSDwa1cyb_so7ybZ-60" value="Fin" style="points=[[0.145,0.145,0],[0.5,0,0],[0.855,0.145,0],[1,0.5,0],[0.855,0.855,0],[0.5,1,0],[0.145,0.855,0],[0,0.5,0]];shape=mxgraph.bpmn.event;html=1;verticalLabelPosition=bottom;labelBackgroundColor=#ffffff;verticalAlign=top;align=center;perimeter=ellipsePerimeter;outlineConnect=0;aspect=fixed;outline=end;symbol=terminate2;fillColor=#f8cecc;strokeColor=#b85450;" parent="1" vertex="1">
          <mxGeometry x="1225" y="320" width="50" height="50" as="geometry" />
        </mxCell>
        <mxCell id="MjaqNSDwa1cyb_so7ybZ-59" style="edgeStyle=orthogonalEdgeStyle;rounded=0;orthogonalLoop=1;jettySize=auto;html=1;" parent="1" source="MjaqNSDwa1cyb_so7ybZ-14" target="MjaqNSDwa1cyb_so7ybZ-60" edge="1">
          <mxGeometry relative="1" as="geometry">
            <mxPoint x="1250" y="345" as="targetPoint" />
          </mxGeometry>
        </mxCell>
      </root>
    </mxGraphModel>
  </diagram>
</mxfile>
